<svg xmlns="http://www.w3.org/2000/svg" viewBox="0 0 1200 630" width="1200" height="630">
  <defs>
    <radialGradient id="bg" cx="50%" cy="0%" r="90%">
      <stop offset="0%" stop-color="#2a1d3a"/>
      <stop offset="55%" stop-color="#130a1c"/>
    </radialGradient>
    <radialGradient id="purple-glow" cx="50%" cy="40%" r="60%">
      <stop offset="0%" stop-color="#c9a5f0" stop-opacity="0.35"/>
      <stop offset="100%" stop-color="#c9a5f0" stop-opacity="0"/>
    </radialGradient>
    <radialGradient id="brain-body" cx="40%" cy="30%" r="70%">
      <stop offset="0%" stop-color="#e8d5f5"/>
      <stop offset="60%" stop-color="#c9a5f0"/>
      <stop offset="100%" stop-color="#8b67b8"/>
    </radialGradient>
  </defs>

  <rect width="1200" height="630" fill="url(#bg)"/>
  <circle cx="600" cy="290" r="280" fill="url(#purple-glow)"/>

  <!-- decorative dots (thought bubbles) -->
  <g fill="#c9a5f0" opacity="0.35">
    <circle cx="170" cy="180" r="6"/>
    <circle cx="205" cy="155" r="4"/>
    <circle cx="235" cy="138" r="3"/>
    <circle cx="1030" cy="200" r="6"/>
    <circle cx="995" cy="175" r="4"/>
    <circle cx="965" cy="158" r="3"/>
    <circle cx="190" cy="450" r="5"/>
    <circle cx="1010" cy="430" r="5"/>
    <circle cx="155" cy="380" r="4"/>
    <circle cx="1045" cy="370" r="4"/>
  </g>

  <!-- Brain (stylized) -->
  <g transform="translate(600, 290)">
    <circle cx="0" cy="0" r="140" fill="url(#brain-body)" opacity="0.95"/>
    <g stroke="#5d3d8a" stroke-width="5" fill="none" stroke-linecap="round" opacity="0.6">
      <path d="M -95 -45 Q -65 -75 -32 -50 Q 0 -82 32 -50 Q 65 -75 95 -45"/>
      <path d="M -100 0 Q -55 -28 -10 0 Q 35 -28 80 0 Q 105 -15 105 5"/>
      <path d="M -95 45 Q -50 18 -5 45 Q 40 18 85 45 Q 100 30 95 55"/>
      <path d="M -70 85 Q -32 62 0 85 Q 32 62 70 85"/>
    </g>
    <line x1="0" y1="-130" x2="0" y2="130" stroke="#5d3d8a" stroke-width="4" opacity="0.45"/>
    <ellipse cx="-50" cy="-70" rx="38" ry="24" fill="#ffffff" opacity="0.45"/>
  </g>

  <!-- Top badge -->
  <rect x="465" y="40" width="270" height="44" rx="22" fill="rgba(201,165,240,0.13)" stroke="#c9a5f0" stroke-opacity="0.55" stroke-width="2"/>
  <text x="600" y="69" text-anchor="middle" font-size="15" font-weight="700" fill="#d8bdf5" font-family="-apple-system, Helvetica, sans-serif" letter-spacing="4">MBTI · PERSONALITY · 1 MIN</text>

  <!-- Main title (Korean) -->
  <text x="600" y="475" text-anchor="middle" font-size="84" font-weight="800" fill="#ffffff" font-family="-apple-system, 'Apple SD Gothic Neo', sans-serif">심리테스트 모음</text>

  <!-- Subtitle -->
  <text x="600" y="528" text-anchor="middle" font-size="28" font-weight="500" fill="#c2c8de" font-family="-apple-system, 'Apple SD Gothic Neo', sans-serif">1분 완료 무료 테스트 · 식물 MBTI · 회원가입 없음</text>

  <!-- Footer URL -->
  <text x="600" y="600" text-anchor="middle" font-size="22" font-weight="600" fill="#c9a5f0" font-family="ui-monospace, Menlo, monospace">devidles.com/test</text>
</svg>
